# xmcd
#
# Track frame offsets:
#       150
#       16655
#       29632
#       42907
#       59152
#       72545
#       85170
#       96727
#       113827
#       128502
#       144817
#       158857
#       174462
#       189447
#       205800
#       223050
#       237455
#       254947
#       267965
#       279832
#
# Disc length: 3902 seconds
#
# Revision: 3
# Processed by: cddbd v1.5.2PL0 Copyright (c) Steve Scherf et al.
# Submitted via: FreeDbEdit v0.1
#
DISCID=2f0f3c14
DTITLE=Barbara Mandrell - Greatest Hits [CD2]
DYEAR=1900
DGENRE=Country
TTITLE0=I Was Country When Country Wasn't Cool (With George Jones)
TTITLE1=Wish You Were Here
TTITLE2='Til You're Gone
TTITLE3=Operator, Long Distance Please
TTITLE4=In Times Like These
TTITLE5=One of a Kind Pair of Fools
TTITLE6=Happy Birthday Dear Heartache
TTITLE7=Only a Lonely Heart Knows
TTITLE8=To Me
TTITLE9=Crossword Puzzle
TTITLE10=It Should Have Been Love by Now (With Lee Greenwood)
TTITLE11=There's No Love in Tennessee
TTITLE12=Angel in Your Arms
TTITLE13=Fast Lanes and Country Roads
TTITLE14=When You Get to the Heart (With the Oak Ridge Boys)
TTITLE15=No One Mends a Broken Heart Like You
TTITLE16=Child Support
TTITLE17=I Wish That I Could Fall in Love Today
TTITLE18=My Train of Thought
TTITLE19=Ten Pound Hammer
EXTD=
EXTT0=With George Jones
EXTT1=
EXTT2=
EXTT3=
EXTT4=
EXTT5=
EXTT6=
EXTT7=
EXTT8=
EXTT9=
EXTT10=With Lee Greenwood
EXTT11=
EXTT12=
EXTT13=
EXTT14=With The Oak Ridge Boys
EXTT15=
EXTT16=
EXTT17=
EXTT18=
EXTT19=
PLAYORDER=
